HIERARCHY
ROOT ROOT
{
	OFFSET 0.000000 56.020000 -5.659234
	CHANNELS 6 Xposition Yposition Zposition Xrotation Yrotation Zrotation 
	JOINT C_spine0001_bind_JNT
	{
		OFFSET 0.000000 1.618999 0.000000
		CHANNELS 3 Xrotation Yrotation Zrotation
		JOINT C_spine0002_bind_JNT
		{
			OFFSET 0.000000 4.942001 0.000001
			CHANNELS 3 Xrotation Yrotation Zrotation
			JOINT C_spine0003_bind_JNT
			{
				OFFSET 0.000000 4.942001 -0.000000
				CHANNELS 3 Xrotation Yrotation Zrotation
				JOINT C_neck0001_bind_JNT
				{
					OFFSET 0.000000 17.026009 -0.000000
					CHANNELS 3 Xrotation Yrotation Zrotation
					JOINT C_neck0002_bind_JNT
					{
						OFFSET 0.000000 3.249985 0.000000
						CHANNELS 3 Xrotation Yrotation Zrotation
						JOINT C_head_bind_JNT
						{
							OFFSET 0.000000 5.278008 0.000000
							CHANNELS 3 Xrotation Yrotation Zrotation
							End Site
							{
								OFFSET 0.000000 0.000000 0.000000
							}
						}
					}
				}
				JOINT L_clavicle_bind_JNT
				{
					OFFSET 4.590000 12.067001 0.834000
					CHANNELS 3 Xrotation Yrotation Zrotation
					JOINT L_armUpper0001_bind_JNT
					{
						OFFSET 7.812635 0.512001 -3.452945
						CHANNELS 3 Xrotation Yrotation Zrotation
						JOINT L_armLower0001_bind_JNT
						{
							OFFSET 15.265892 -6.552116 -0.058157
							CHANNELS 3 Xrotation Yrotation Zrotation
							JOINT L_hand0001_bind_JNT
							{
								OFFSET 14.747667 -6.369995 5.049225
								CHANNELS 3 Xrotation Yrotation Zrotation
								End Site
								{
									OFFSET 0.000000 0.000000 0.000000
								}
							}
						}
					}
				}
				JOINT R_clavicle_bind_JNT
				{
					OFFSET -4.590000 12.067001 0.834000
					CHANNELS 3 Xrotation Yrotation Zrotation
					JOINT R_armUpper0001_bind_JNT
					{
						OFFSET -7.812635 0.512001 -3.452945
						CHANNELS 3 Xrotation Yrotation Zrotation
						JOINT R_armLower0001_bind_JNT
						{
							OFFSET -15.265890 -6.552124 -0.058160
							CHANNELS 3 Xrotation Yrotation Zrotation
							JOINT R_hand0001_bind_JNT
							{
								OFFSET -14.746784 -6.369629 5.048937
								CHANNELS 3 Xrotation Yrotation Zrotation
								End Site
								{
									OFFSET 0.000000 0.000000 0.000000
								}
							}
						}
					}
				}
			}
		}
	}
	JOINT C_pelvis0001_bind_JNT
	{
		OFFSET -0.000000 0.000000 0.000000
		CHANNELS 3 Xrotation Yrotation Zrotation
		JOINT L_legUpper0001_bind_JNT
		{
			OFFSET 6.599999 -6.027000 0.539000
			CHANNELS 3 Xrotation Yrotation Zrotation
			JOINT L_legLower0001_bind_JNT
			{
				OFFSET -0.140713 -19.187443 0.040261
				CHANNELS 3 Xrotation Yrotation Zrotation
				JOINT L_foot0001_bind_JNT
				{
					OFFSET -0.132215 -18.028637 -1.138370
					CHANNELS 3 Xrotation Yrotation Zrotation
					JOINT L_foot0002_bind_JNT
					{
						OFFSET 0.007014 -4.693133 9.886524
						CHANNELS 3 Xrotation Yrotation Zrotation
						End Site
						{
							OFFSET 0.000000 0.000000 0.000000
						}
					}
				}
			}
		}
		JOINT R_legUpper0001_bind_JNT
		{
			OFFSET -6.599999 -6.027000 0.539000
			CHANNELS 3 Xrotation Yrotation Zrotation
			JOINT R_legLower0001_bind_JNT
			{
				OFFSET 0.140710 -19.187164 0.040550
				CHANNELS 3 Xrotation Yrotation Zrotation
				JOINT R_foot0001_bind_JNT
				{
					OFFSET 0.132215 -18.028633 -1.138362
					CHANNELS 3 Xrotation Yrotation Zrotation
					JOINT R_foot0002_bind_JNT
					{
						OFFSET -0.007014 -4.693128 9.886505
						CHANNELS 3 Xrotation Yrotation Zrotation
						End Site
						{
							OFFSET 0.000000 0.000000 0.000000
						}
					}
				}
			}
		}
	}
}
MOTION
Frames: 11
Frame Time: 0.046333
0.000000 48.949261 0.000000 0.006736 -1.205849 -0.008266 -2.137359 0.468066 0.934909 0.444777 0.566505 -0.136767 0.317391 0.669801 -0.215402 4.693684 -0.028234 0.372048 -2.589906 8.843999 -0.720660 -16.280725 1.108413 -2.009926 0.998875 16.691158 -1.464515 1.621391 4.652166 -59.941040 15.897761 -1.014770 3.349123 -4.490130 -38.368259 -28.267809 0.762626 -14.521002 1.472027 1.456036 -1.256175 59.126698 14.931083 -5.104616 1.059375 8.215746 37.473125 28.953762 -1.127818 0.590171 0.644515 3.148528 -0.138406 -1.744013 0.062563 0.730463 -0.232025 -2.029398 10.315385 1.035939 -0.701791 -0.246882 0.224771 3.181375 -0.167646 1.838767 2.243327 -3.322913 -0.192477 -5.105145 -6.985903 -1.407786 0.148908 -0.276463 -0.212758
0.048163 48.911065 -0.155718 0.003318 -1.267699 -0.009224 -2.078849 0.669942 1.024808 0.471176 0.521012 -0.196435 0.164309 0.539436 -0.349170 5.006860 -0.047997 0.512039 -2.646838 8.974140 -0.478244 -16.578770 1.091210 -2.398768 1.197171 17.112221 -1.579324 1.689323 4.778233 -59.115861 16.417339 -1.405831 2.820093 -5.416222 -38.866401 -28.545645 0.820309 -14.193308 1.933609 1.809283 -1.639088 58.665885 14.539058 -4.923050 0.796819 7.619551 38.124259 30.452418 -1.216517 0.402740 0.796236 2.800589 0.587423 -1.912858 -0.013528 0.643580 -0.256565 -1.678527 10.317249 1.294809 -0.504772 -0.021245 -0.106941 2.857809 -0.250088 1.624651 2.695728 -3.011721 -0.356411 -4.916627 -7.244338 -1.295897 -0.332939 -0.178579 -0.182186
0.043552 48.931536 -0.238635 0.002350 -1.250533 -0.008439 -2.043701 0.743643 0.987279 0.397782 0.542103 -0.239264 0.151712 0.560899 -0.413541 5.179253 -0.090674 0.698721 -2.727507 9.056247 -0.355227 -16.884137 1.143470 -2.717003 1.200006 17.308368 -1.633043 1.549928 4.832572 -58.755916 16.549230 -1.615136 2.634439 -5.723402 -39.237888 -28.507569 0.812518 -14.060090 2.064271 2.009244 -1.935984 58.607244 14.304886 -4.851303 0.684156 7.521151 38.545614 31.224717 -1.262294 0.368762 0.803217 2.792519 0.911344 -1.838847 -0.192672 0.780086 -0.272798 -1.505904 10.374000 1.337651 -0.387512 -0.003273 -0.244460 2.729854 -0.301387 1.654498 2.672126 -2.685334 -0.506556 -4.658172 -7.355881 -1.293528 -0.479863 -0.089702 -0.118982
0.007980 48.976803 -0.274349 0.004235 -1.172443 -0.006773 -2.029333 0.729927 0.893432 0.286246 0.609105 -0.264737 0.217687 0.641245 -0.404539 5.224598 -0.126984 0.871598 -2.795076 9.115206 -0.329137 -17.152247 1.221403 -2.955640 1.097647 17.346961 -1.667166 1.317493 4.797428 -58.704798 16.463604 -1.699520 2.692496 -5.662371 -39.456984 -28.335411 0.759693 -14.027741 1.995283 2.079370 -2.173937 58.737801 14.254557 -4.868775 0.689701 7.684549 38.771252 31.461937 -1.273911 0.426791 0.724844 2.970874 0.950352 -1.634390 -0.413212 0.997077 -0.274243 -1.437618 10.436351 1.243325 -0.352928 -0.065462 -0.255092 2.760128 -0.311106 1.817307 2.319782 -2.424550 -0.619110 -4.371244 -7.379799 -1.349469 -0.410093 -0.039462 -0.067995
-0.017744 48.976992 -0.307724 0.010683 -1.057458 -0.005941 -2.035685 0.696818 0.888770 0.265690 0.687952 -0.266845 0.243790 0.586197 -0.292700 5.138624 -0.088781 0.889691 -2.762388 9.200977 -0.376053 -17.271668 1.232905 -3.072124 1.065395 17.336791 -1.770296 1.225156 4.607619 -58.694036 16.485572 -1.753005 2.836264 -5.698790 -39.422887 -28.403970 0.695626 -13.912185 1.968563 2.036631 -2.397892 58.627523 14.498213 -4.953627 0.774569 7.647752 38.823843 31.448541 -1.261711 0.463183 0.671940 3.039789 0.890253 -1.517942 -0.546927 0.993053 -0.242083 -1.335213 10.394140 1.152358 -0.430668 0.058868 -0.256034 2.907989 -0.244006 1.898514 1.880887 -2.430804 -0.629646 -4.141896 -7.426010 -1.363880 -0.331241 -0.105788 -0.134295
-0.043902 48.994155 -0.332420 0.006869 -1.046848 -0.005319 -2.109603 0.791427 0.879792 0.295008 0.674179 -0.137309 0.236926 0.620805 -0.332132 5.162209 -0.088066 0.912581 -2.797905 9.285346 -0.329346 -17.340910 1.377251 -3.176539 1.054660 17.333003 -1.797681 1.218018 4.446494 -58.746582 16.532194 -1.770547 2.906038 -5.454757 -39.464981 -28.262313 0.741710 -13.830891 1.961249 1.933587 -2.507736 58.651752 14.541832 -5.146631 0.624626 7.717179 39.062596 31.424644 -1.283351 0.517715 0.735422 3.219619 0.931648 -1.467018 -0.737815 1.020170 -0.290612 -1.259468 10.285568 1.096523 -0.409745 0.098156 -0.306870 2.994461 -0.243594 1.843316 1.714357 -2.379083 -0.532287 -4.113966 -7.522775 -1.505477 -0.255732 -0.121421 -0.079930
-0.065603 48.999018 -0.359849 0.003941 -1.067066 -0.005445 -2.185849 0.926057 0.870322 0.339729 0.640988 -0.051855 0.227066 0.611508 -0.341647 5.185750 -0.078966 0.954237 -2.810389 9.349158 -0.340992 -17.396739 1.439318 -3.199840 1.043306 17.292073 -1.821870 1.190396 4.335000 -58.771474 16.544889 -1.838258 2.945354 -5.210706 -39.483083 -28.135268 0.768489 -13.774223 1.941070 1.874640 -2.597040 58.655988 14.587640 -5.317420 0.516525 7.697180 39.242727 31.454472 -1.356459 0.631879 0.768342 3.439454 0.968593 -1.413415 -0.925174 1.008456 -0.337187 -1.203026 10.223028 1.041549 -0.376751 0.116344 -0.325023 3.040293 -0.243051 1.855241 1.636636 -2.321143 -0.494840 -4.086053 -7.632854 -1.616743 -0.191900 -0.110309 -0.034694
-0.081082 48.985099 -0.392893 0.004881 -1.086028 -0.006389 -2.250551 1.063163 0.859291 0.390893 0.605858 -0.053552 0.225062 0.528150 -0.276680 5.179951 -0.052232 1.018269 -2.778673 9.393903 -0.444356 -17.441304 1.367574 -3.137050 1.023816 17.207545 -1.858590 1.115717 4.279635 -58.747285 16.517475 -1.976593 2.973289 -5.044389 -39.453991 -28.086212 0.743334 -13.743026 1.901663 1.882699 -2.686758 58.603548 14.687278 -5.438210 0.511188 7.539496 39.298056 31.552726 -1.484754 0.799228 0.735571 3.680272 0.976673 -1.343934 -1.092617 0.940531 -0.361526 -1.163620 10.234689 0.983807 -0.355731 0.129753 -0.291012 3.048066 -0.223929 1.976991 1.601455 -2.271981 -0.555344 -4.006675 -7.743150 -1.657762 -0.142554 -0.078024 -0.032334
-0.088274 48.995843 -0.423555 0.007079 -0.852593 -0.005835 -2.374230 0.912074 0.809134 0.439017 0.544724 0.006913 0.281443 0.543370 -0.269184 5.160400 -0.078917 1.077431 -2.801950 9.566521 -0.415579 -17.347655 1.401046 -3.340289 0.971286 17.224455 -1.835467 1.064296 4.232684 -58.772777 16.670474 -2.065595 3.155029 -4.966429 -39.485733 -28.124384 0.743826 -13.769952 1.904117 1.798803 -2.715868 58.623941 14.765968 -5.681871 0.283563 7.454346 39.321834 31.599863 -1.584634 0.624879 0.770162 3.901706 1.046563 -1.362115 -1.250130 0.897879 -0.410252 -1.113130 10.214396 1.026642 -0.365413 0.141403 -0.303336 3.011460 -0.185254 1.886635 1.575949 -2.252836 -0.493784 -3.946700 -7.785958 -1.727437 -0.102676 -0.039077 -0.026224
-0.099238 48.990433 -0.441341 0.006902 -0.745326 -0.006220 -2.425591 0.894012 0.763345 0.480844 0.518014 0.040400 0.278173 0.543175 -0.224298 5.136054 -0.121193 1.110146 -2.823328 9.687807 -0.428866 -17.287048 1.417613 -3.426091 0.925684 17.223750 -1.873008 1.064953 4.208741 -58.750618 16.801857 -2.120469 3.294588 -4.873635 -39.449873 -28.164946 0.745415 -13.764100 1.880338 1.813651 -2.803275 58.597085 14.809532 -5.859410 0.157405 7.451628 39.372018 31.615563 -1.645000 0.598736 0.769407 4.029343 1.060587 -1.367748 -1.347753 0.886316 -0.422861 -1.067913 10.170784 1.043392 -0.352491 0.176443 -0.312535 3.003486 -0.118668 1.861425 1.626563 -2.365398 -0.436313 -3.989643 -7.764701 -1.756784 -0.073867 -0.072313 -0.026371
-0.118056 48.978137 -0.448720 0.005761 -0.677326 -0.006867 -2.423865 0.917043 0.722942 0.499600 0.509514 0.070178 0.248728 0.530023 -0.188456 5.107225 -0.154416 1.142693 -2.831344 9.773631 -0.458954 -17.252332 1.436324 -3.473304 0.900623 17.219273 -1.915889 1.067646 4.177041 -58.711752 16.878313 -2.138856 3.403939 -4.749583 -39.406175 -28.189976 0.756849 -13.741983 1.857585 1.873966 -2.916460 58.550957 14.823664 -5.994163 0.072622 7.466355 39.409581 31.612637 -1.664453 0.623673 0.754095 4.068425 1.060686 -1.343085 -1.386379 0.879406 -0.433135 -1.035071 10.123138 1.048090 -0.347100 0.192613 -0.323269 3.012529 -0.043403 1.887672 1.690908 -2.533222 -0.374522 -4.074741 -7.711553 -1.794713 -0.065944 -0.113047 -0.023570
